<svg id="Layer_1" data-name="Layer 1" xmlns="http://www.w3.org/2000/svg" viewBox="0 0 561.36 163.22"><defs><style>.cls-1{fill:#160b09;}.cls-1,.cls-2,.cls-3{stroke:#000;stroke-miterlimit:10;}.cls-2{fill:none;}.cls-3{fill:#fdfdfd;}</style></defs><g id="Layer_2" data-name="Layer 2"><g id="Layer_1-2" data-name="Layer 1-2"><path class="cls-1" d="M353.92,97.72c-2.1,0-4.21.19-6.29,0-3-.27-5.37.45-6.7,3.45a7.69,7.69,0,0,1-1.54,2,45.5,45.5,0,0,0-7.29,10.22c-1,1.86-2.1,3.63-3.23,5.4a37.24,37.24,0,0,0-5,14.15,18.17,18.17,0,0,0-.13,7.16c.07.31.15.62.23.93s.11.39.16.57l.15.47c.11.33.23.64.36,1a8.21,8.21,0,0,0,1.19,2l.36.4.34.33a2.43,2.43,0,0,0,.25.2c-1.68-1.4-2.45-3.55-3-5.82A18.17,18.17,0,0,1,324,133a37.24,37.24,0,0,1,5-14.15c1.13-1.77,2.23-3.54,3.23-5.4a45.5,45.5,0,0,1,7.29-10.22,7.69,7.69,0,0,0,1.54-2c1.33-3,3.7-3.72,6.7-3.45,2.08.15,4.19,0,6.29,0v-.61Zm-150-24h-1.82c-1,0-1.46.33-1.46,1.33,0-1,.47-1.31,1.46-1.31H204Zm150,24c-2.1,0-4.21.19-6.29,0-3-.27-5.37.45-6.7,3.45a7.69,7.69,0,0,1-1.54,2,45.5,45.5,0,0,0-7.29,10.22c-1,1.86-2.1,3.63-3.23,5.4a37.24,37.24,0,0,0-5,14.15,18.17,18.17,0,0,0-.13,7.16c.07.31.15.62.23.93s.11.39.16.57l.15.47c.11.33.23.64.36,1a8.21,8.21,0,0,0,1.19,2l.36.4.34.33a2.43,2.43,0,0,0,.25.2c-1.68-1.4-2.45-3.55-3-5.82A18.17,18.17,0,0,1,324,133a37.24,37.24,0,0,1,5-14.15c1.13-1.77,2.23-3.54,3.23-5.4a45.5,45.5,0,0,1,7.29-10.22,7.69,7.69,0,0,0,1.54-2c1.33-3,3.7-3.72,6.7-3.45,2.08.15,4.19,0,6.29,0v-.61Zm-150-24h-1.82c-1,0-1.46.33-1.46,1.33,0-1,.47-1.31,1.46-1.31H204Zm0,0h-1.82c-1,0-1.46.33-1.46,1.33,0-1,.47-1.31,1.46-1.31H204Zm0,0h-1.82c-1,0-1.46.33-1.46,1.33,0-1,.47-1.31,1.46-1.31H204Zm0,0h-1.82c-1,0-1.46.33-1.46,1.33,0-1,.47-1.31,1.46-1.31H204Zm0,0h-1.82c-1,0-1.46.33-1.46,1.33,0-1,.47-1.31,1.46-1.31H204Zm0,0h-1.82c-1,0-1.46.33-1.46,1.33,0-1,.47-1.31,1.46-1.31H204Zm0,0h-1.82c-1,0-1.46.33-1.46,1.33,0-1,.47-1.31,1.46-1.31H204Zm0,0h-1.82c-1,0-1.46.33-1.46,1.33,0-1,.47-1.31,1.46-1.31H204Zm0,0h-1.82c-1,0-1.46.33-1.46,1.33,0-1,.47-1.31,1.46-1.31H204Zm0,0h-1.82c-1,0-1.46.33-1.46,1.33,0-1,.47-1.31,1.46-1.31H204Zm0,0h-1.82c-1,0-1.46.33-1.46,1.33,0-1,.47-1.31,1.46-1.31H204Zm0,0h-1.82c-1,0-1.46.33-1.46,1.33,0-1,.47-1.31,1.46-1.31H204ZM558.82,88.93a6.13,6.13,0,0,0-2.26-.57,191.86,191.86,0,0,0-23-.18c-10.86.47-21.7,1.36-32.57,1.29-10.69-.06-21.38-.5-32.06-.15-12.36.41-24.72.83-37.08,1.18-19.87.55-39.74.71-59.61,1.21-3.13.1-5.66-.19-7.55-3a14.68,14.68,0,0,0-3-2.56c-1.53-1.27-3.05-2.54-4.59-3.78-.57-.44-.76-.81-.18-1.44a50.77,50.77,0,0,0,6.1-8.46,1.9,1.9,0,0,1,1.78-1c9.84-.39,19.66-1,29.47-1.89,7.17-.62,14.36-1.14,21.53-1.79,2.32-.22,4.74-.48,6.74-1.77,1.38-.9,2.64-2,2.38-3.9-.21-1.57-1.78-2.88-3.66-3.24a17.35,17.35,0,0,0-4.66-.32c-6.82.52-13.65.93-20.46,1.62-8.13.81-16.25,1.58-24.41,2-1.22.06-1.78,0-1.05-1.39s1.2-3,2-4.43A36.06,36.06,0,0,0,377,41.43a10.63,10.63,0,0,0-6.2-10.75A19.86,19.86,0,0,0,363,28.94c-9.06-.48-16.06,4.08-22.65,9.52-1.18,1-1.77,2.27-.72,3.62s2.32,1,3.7.35c3.52-1.67,6.74-3.9,10.32-5.49a19,19,0,0,1,13.17-1.08c3.17.88,4.2,2.63,4,5.88-.48,7.39-4.29,13.52-7.37,19.93-.57,1.2-1.62,1.42-2.84,1.49-12.43.71-24.94,1.34-37.43,1.59q-38.26.8-76.52,2.34h-2.34a.78.78,0,0,1-.59-.27c-.19-.36.14-.52.4-.65.53-.27,1.07-.54,1.62-.79a250.44,250.44,0,0,0,25.89-13c6.64-4,13.27-7.94,18.86-13.44,5.9-5.79,10.1-12.44,11.29-20.79A11.75,11.75,0,0,0,295,5.31a34.59,34.59,0,0,0-12.56-3.14c-5.39-.35-10.81-.64-16.13-1.49-6.12-1-12.2-.72-18.31-.35-6.81.42-13.52,1.95-20.18,3.27-9.41,1.89-18.74,4.2-28.06,6.54-7.09,1.77-14.29,3.22-21.18,5.77-3.65,1.37-7.26,2.91-11,4-13.16,3.85-25.27,10.1-37.27,16.47A207.29,207.29,0,0,0,109,49.8a49.26,49.26,0,0,0-7.88,6.37c-4.44,4.61-8.66,9.4-9.66,16.07-.19,1.35-.82,1.58-2,1.64-13.52.72-27,.15-40.52-.13-14.88-.26-29.73-1.7-44.64-1.26a15.43,15.43,0,0,0-2.15,0A2.33,2.33,0,0,0,0,74.78a2.19,2.19,0,0,0,1.66,2.49,8.89,8.89,0,0,0,2.67.28c8-.25,16.12-.29,24.12.23a581.43,581.43,0,0,0,61.92,1,2.43,2.43,0,0,1,2.39,1.12,13.51,13.51,0,0,0,7.24,5c6.7,2.17,13.63,2.77,20.57,3.33,12,1,24,1,36,.89,1.16,0,1.83,0,1.89,1.55.1,2.45.22,2.56-2,3.08l-.36.08c-.93.21-1.84.53-2.78.74-6.13,1.38-11.94,3.75-17.82,5.91l-2.76,1-.47.17c-1,.35-2,.68-3,1-5.28,1.67-10.75,2.84-16,4.77a8.65,8.65,0,0,0-3.36,2,2.91,2.91,0,0,0-1,3.25,3.69,3.69,0,0,0,2.91,2.42,8.36,8.36,0,0,0,2,0l24.44-1.85,7-.52c3.14-.23,6.29-.37,9.47-.56a4.55,4.55,0,0,1-.89,2.08c-4.35,8-7.9,16.33-8.71,25.55-.42,4.83.25,9.43,3.25,13.5a20.2,20.2,0,0,0,13.46,7.9,95.12,95.12,0,0,0,20.65.83,191.75,191.75,0,0,0,24.15-2.52c12.1-2.11,23.66-6.14,35.3-10a85.75,85.75,0,0,0,27.55-14.8,36.59,36.59,0,0,0,9.68-11.9,15.8,15.8,0,0,0,.71-13.25c-1-2.67-2.82-4.69-5-7.06,20.25-2.16,40.19-3.2,60.39-4.2a4.23,4.23,0,0,1-1.33,2.08,38.13,38.13,0,0,0-6,8.32,48.86,48.86,0,0,1-3,5.33,43.45,43.45,0,0,0-7.29,22.07c-.42,5.72,1,11,5.58,14.72,3.67,3,8.29,3.66,12.81,3.24,11.48-1,21.8-5,30.36-13,3.38-3.17,5.31-7.25,7.31-11.25a28.42,28.42,0,0,0,2.31-18.93c-.94-4.54-2.06-9-4.61-13-.54-.83-.13-1,.65-1h1.26c16-.31,32.08-.66,48.08-.95,23.23-.4,46.43-2.07,69.68-1.47,9.84.26,19.69,0,29.52-.54,7.44-.39,14.86-1,22.32-.86,4.91.11,9.84-.3,14.75.28a2.13,2.13,0,0,0,2.49-1.61A2.21,2.21,0,0,0,558.82,88.93ZM347.74,92.45l.29-.35c.82-1,1.6-1.89,2.35-2.8,0,0,0,0,0,0l.84-1,1.1-1.33c.34-.4.64-.45,1.05-.1l.73.6c1.7,1.45,3.44,2.91,5.38,4.53C355.43,92.18,351.73,92.49,347.74,92.45Zm-1.57-20,9.83-.61a39.19,39.19,0,0,1-4.63,6.1.91.91,0,0,1-1.13.23c-4.52-1.56-8.89-3.49-13.45-5.11Zm-.1,10.38c1.21.52,1.09.87.39,1.7-2.18,2.56-4.62,4.89-6.57,7.64l-.18.2,0,0a2.68,2.68,0,0,1-1.91.48c-14.29.27-28.53,1.39-42.78,2.27-7.85.48-15.67,1.32-23.49,2.09a7.53,7.53,0,0,1-5.28-1c-3.17-2.11-6.87-3.06-10.51-4.45h0c3.5-1.46,6.91-3.09,10.44-4.43,1.18-.45,2.38-.87,3.6-1.23a24.63,24.63,0,0,0,3.92-1.29c6.68-3.37,13.94-4.8,21.12-6.37C312.26,74.67,329.43,75.77,346.07,82.86ZM256.7,98.22l-.09.35a5.48,5.48,0,0,0-.67.17l-9.48.87s0,0,0,0a9.58,9.58,0,0,1,.36-1.45,2.09,2.09,0,0,1,.11-.3,1.47,1.47,0,0,1,.1-.22,1.74,1.74,0,0,1,.18-.33,2,2,0,0,1,.29-.36.93.93,0,0,1,.14-.14.66.66,0,0,1,.17-.12,1.51,1.51,0,0,1,.28-.15,1.06,1.06,0,0,1,.25-.09h0l.16,0,.16,0a5.79,5.79,0,0,1,2.15.27l5.84,1.61ZM273.85,77l1.94-.07s0,0,.07,0l0,0a.29.29,0,0,1,.08.08l.11.1h0c-.27.15-.54.3-.82.44a36.76,36.76,0,0,1-6.06,2.49l-1.76.55c-.52.16-1.05.34-1.57.52-2,.67-4.06,1.41-6.06,2.2q-.78.3-1.56.63l-.79.33c-.67.28-1.35.57-2,.87l-2.23,1c-.76.34-1.5.69-2.25,1.06-.47.23-.94.47-1.4.74h0l-.68.39-.73.41a3.56,3.56,0,0,1-.38.2.61.61,0,0,1-.3.06c-.26,0-.39-.24-.39-.83,0-2.53.25-5-.35-7.53-.14-.59.15-.81.64-.81h0l2.73-.28.77-.09,2.93-.35,7.88-1,3.09-.39c1-.12,2.05-.23,3.08-.33l1.07-.1c1.11-.11,2.21-.19,3.32-.26C272.78,77,273.31,77,273.85,77Zm-6.56-5.49c1.14,0,2.29,0,3.44,0l-1.4.19-4.36.64c-10.51,1.41-21,2.72-31.51,3.28-2.82.15-5.56.86-8.37.86-.38,0-.9.41-1.1-.22a.53.53,0,0,1,0-.53.31.31,0,0,1,.09-.11.35.35,0,0,1,.11-.1,2.77,2.77,0,0,1,.55-.26c3.23-1.28,6.36-2.58,10-2.64,10.14-.2,20.27-.67,30.41-1,.46,0,.91-.05,1.37-.06Zm-65.16,2.26h11.62c-.25.09-.49.17-.73.27-1.34.5-2.64,1.11-3.94,1.7l-.78.36c-.52.24-1,.48-1.56.7l-.82.34c-.24.1-.48.2-.72.28-.48.18-1,.35-1.46.5a5.26,5.26,0,0,1-.75.21c-.25.08-.5.14-.76.2a3.5,3.5,0,0,1-.91.1h-.16l-.15,0a1.07,1.07,0,0,1-.27-.08.23.23,0,0,1-.11-.07.62.62,0,0,1-.14-.14.48.48,0,0,1-.08-.16,1.2,1.2,0,0,1-.06-.59,2.55,2.55,0,0,1,.07-.43c0-.07,0-.15.06-.24a6.75,6.75,0,0,0,.19-1.61C200.71,74.09,201.14,73.73,202.13,73.73Zm6.73,9.68a1.84,1.84,0,0,1-.27.23,1.26,1.26,0,0,1-.35.17l-.17,0-.17,0h-.37l-.12,0a3.15,3.15,0,0,1-.55-.12l-.21-.06-.28-.07-.25,0,.36-.09.38-.07h0a3.4,3.4,0,0,1,.46-.06h.34A5.67,5.67,0,0,1,208.86,83.41Zm-5.21,5.84c0,.35-.19.55-.4.75l-2,1.85-.65.61-1.72,1.62V92.91c0-.4,0-.76,0-1.08,0-.17,0-.32,0-.47a1.09,1.09,0,0,1,0-.18l0-.42c0-.19,0-.36.07-.51C199.38,88.48,200.26,88.64,203.65,89.25Zm-3.77,11.4a69.22,69.22,0,0,0,10.06-9.75c.73-.91,4.63-1.25,5.51-.55.33.28.24.65.24,1,0,1.06-.12,2.06-.12,3.06a3.5,3.5,0,0,0,2.22,3.4c1.41.59,2.51,0,3.51-1.09a13.53,13.53,0,0,0,2.69-3.8c.41-1,1-1.44,2.08-1a6.15,6.15,0,0,0,1.41.26c2,.22,3.75.28,3.75,3.22,0,2.26,3.41,3.05,5.49,1.46A7,7,0,0,0,238.39,95c.52-.82,1.12-.7,1.86-.5.94.26.58.93.49,1.46a5.16,5.16,0,0,0,1,4.19h0v0s0,0,0,0c-14.45.65-28.57,2-42.89,3.13A3,3,0,0,1,199.88,100.65Zm16.29-16a.77.77,0,0,1-.45-.11h0a.41.41,0,0,1-.1-.09h0a1.51,1.51,0,0,1,.08-.38l0-.08,0-.09a1,1,0,0,1,.08-.14,3.87,3.87,0,0,1,.68-.77.38.38,0,0,1,.09-.09l.25-.24c0,.12,0,.24,0,.36s0,.49,0,.69a1.24,1.24,0,0,1-.08.4.46.46,0,0,1,0,.09h0a.46.46,0,0,1-.09.15.27.27,0,0,1-.07.08.45.45,0,0,1-.13.11Zm14.75,1.46v.16a.13.13,0,0,1,0,.06c0,.06,0,.11,0,.15a.19.19,0,0,1,0,.08,0,0,0,0,1,0,0h0l-.06.1a.39.39,0,0,1-.42.14,9,9,0,0,1-2.24-.47h0c-.4-.16,0-.63.18-.89a11.84,11.84,0,0,1,2.34-2.93h0c.05.7.1,1.33.14,1.92S230.89,85.6,230.92,86.15Zm5.26-4.66a.88.88,0,0,1,0-.29.39.39,0,0,1,.12-.23.63.63,0,0,1,.49-.18H237l2.48-.2-2.78,4.75C236.46,83.78,236.33,82.63,236.18,81.49Zm7-14.63s.1-.11.1-.11l.12.19-.11.12A1.28,1.28,0,0,1,243.14,66.86ZM97.34,71.6c1.26-4.51,4.39-7.79,7.46-11.08A39.82,39.82,0,0,1,111.43,55a211.93,211.93,0,0,1,21.91-13.83c11.53-6,23.08-12,35.61-15.77,7.51-2.29,14.71-5.55,22.38-7.4,12.65-3.07,25.22-6.49,38-9,6-1.15,12-2.55,18.28-3s12.39-.67,18.66.4c5.3.9,10.73,1.2,16.11,1.6a34,34,0,0,1,10.05,2.6c2.77,1.07,3.69,3.41,3.57,6.07a22.26,22.26,0,0,1-4.17,12.08c-4.89,6.87-11.35,12-18.64,16.13-7.62,4.32-15,8.94-23.19,12.32-6.89,2.8-13.45,6.41-20.1,9.68a6.43,6.43,0,0,1-2.9.83H214.94v.86h0c-4,0-8,0-12,.05-1.14,0-1.46-.21-1.29-1.38.65-4.39,1.19-8.8,1.81-13.2a18.12,18.12,0,0,0,0-5.74c-.63-3.47-3.1-4.47-5.86-2.29-3.57,2.84-7,5.75-10.51,8.75l-.13.13a1.63,1.63,0,0,1-2.3-.13c-2.91-2.17-7.54-1.95-10.91.83-4.47,3.68-8.35,8-10.62,13.41a1.78,1.78,0,0,1-1.92,1.2c-4.86.26-9.71.63-14.57.81-15.9.59-31.77,1.62-47.66,2.48C96.83,73.6,96.79,73.6,97.34,71.6ZM193,97.92a1.44,1.44,0,0,1-.87,1.42c-1.77,1.14-3.52,2.3-5.3,3.42-3.08,1.94-6.57,2.09-10.28,2.24-3.17.6-5.85-.86-8.32-2.86-.7-.58-1-1.19-.39-2a.8.8,0,0,0,.08-.16,8.93,8.93,0,0,1,7-6.29A93,93,0,0,0,185.41,90a17,17,0,0,1,6.7-1.07c.79,0,1.14.09,1.14,1.09A58.05,58.05,0,0,0,193,97.92Zm-28.72-8.81a.55.55,0,0,1,.17-.17l.09,0a.31.31,0,0,1,.13,0,.43.43,0,0,1,.16,0H165a1.2,1.2,0,0,1,.38,0H167c-.39.69-.62,1.14-.86,1.51-.08.13-.16.25-.25.37a1.22,1.22,0,0,1-.88.61h-.14a.79.79,0,0,1-.3,0l-.14-.06c-.44-.25-.37-.81-.32-1.31,0-.14,0-.27,0-.39a1.36,1.36,0,0,1,0-.21.75.75,0,0,1,0-.16h0ZM166,80.72c-.51,0-.7-.12-.7-.72l9.53-5.28c-1,1.91-1.83,3.48-2.65,5.06a1.07,1.07,0,0,1-1,.69Zm10.68-20a12.9,12.9,0,0,1,1.41-.75,2.3,2.3,0,0,1,.37-.16l.38-.14c.16-.06.32-.1.47-.14l.41-.1h.07l.18,0h.11l.23,0a2.53,2.53,0,0,1,.48,0c-.17.13-.33.26-.5.41h0l-.17.14-.35.28h0c-3,2.46-5.58,5-8.77,6.89l0,0-.11.08h0l0,0a5.18,5.18,0,0,1,.69-1.55c.13-.22.28-.43.44-.66a2.39,2.39,0,0,1,.25-.33c.21-.27.44-.54.69-.82l.15-.16c.27-.29.56-.58.87-.86l.46-.42.54-.44.39-.3A16,16,0,0,1,176.66,60.73ZM190.83,79.1c-3.47.24-6.93.5-10.39.73-.45,0-.93.27-1.52-.17l2.7-4.75c.32-.59.86-.59,1.41-.59,3.53-.1,7.06-.17,10.59-.33,1,0,1.38.22,1.21,1.29C194.18,79.65,195.18,78.79,190.83,79.1Zm3.58-10.18c-2.82,0-5.64.14-8.45.27-1,0-1.29-.2-.84-1.2a8.84,8.84,0,0,0,1-2.87c.26-3,1.95-4.5,4.35-6.16s4.57-3.61,7.12-5.66c-.67,5.09-1.29,9.7-1.84,14.36C195.64,68.53,195.34,68.92,194.41,68.92Zm-42,10.41c-1.88.69-3.53,1.62-4,3.76-.22,1-1,.72-1.57.72-7.56.11-15.12-.23-22.67-.67a134.89,134.89,0,0,1-17.69-2,29.77,29.77,0,0,1-7.07-2.27v-.54l59.47-3A17.12,17.12,0,0,1,152.44,79.33Zm-20.76,28.25,0,0,2.28-.76.58-.19,1.42-.5c.48-.16,1-.33,1.43-.51,1.9-.69,3.78-1.39,5.68-2.07a.13.13,0,0,0,.08,0l1.84-.66c3.2-1.15,6.43-2.23,9.72-3.09,1-.25,1.93-.49,2.9-.69l.53-.12.13,0,.14-.05.15-.06a1.84,1.84,0,0,1,.25-.09.16.16,0,0,1,.09,0,.27.27,0,0,1,.12,0,.32.32,0,0,1,.14,0h.15a.58.58,0,0,1,.57.41c.36.81,1,1.69.36,2.69a39,39,0,0,0-2,3.64,1.3,1.3,0,0,1-.28.41,1.6,1.6,0,0,1-.27.25l-.22.13a.62.62,0,0,1-.19.07,1.61,1.61,0,0,1-.44.06c-8.56.61-17.1,1.24-26.08,1.9A6.27,6.27,0,0,1,131.68,107.58Zm-.92.58h0l0,0ZM274,120.41a32.77,32.77,0,0,1-7.79,9.54c-8.72,7.51-19,11.72-29.72,15.28-11.52,3.83-23.05,7.55-35.11,9.23a139,139,0,0,1-20.67,1.73h0a61.92,61.92,0,0,1-19.44-1.07c-7-1.55-11-7.84-10.15-15,1-8.7,4.64-16.32,8.41-24,1.76-3.59,3.82-4.76,7.82-4.92,16-.62,31.81-2.49,47.72-3.73,12.15-1,24.33-1.47,36.45-2.81,4.53-.51,9.08-.91,13.61-1.37a2.55,2.55,0,0,1,2.06.37,46.21,46.21,0,0,1,5.32,4.56C275.64,111.91,276.24,116.09,274,120.41Zm96.76-2.12a26.44,26.44,0,0,1-1.3,6.42,30.35,30.35,0,0,1-17.26,18.77,58.78,58.78,0,0,1-14.09,4.26,21.17,21.17,0,0,1-8.57-.44,6.38,6.38,0,0,1-1.92-.77,5.76,5.76,0,0,1-.81-.55c-1.68-1.4-2.45-3.55-3-5.82A18.17,18.17,0,0,1,324,133a37.24,37.24,0,0,1,5-14.15c1.13-1.77,2.23-3.54,3.23-5.4a45.5,45.5,0,0,1,7.29-10.22,7.69,7.69,0,0,0,1.54-2c1.33-3,3.7-3.72,6.7-3.45,2.08.15,4.19,0,6.29,0v-.62c2.83,0,5.71,0,8.64.06.73,0,1.4,0,1.89.7a46.66,46.66,0,0,1,3.55,6.36,1.92,1.92,0,0,1,.12.25c.1.21.18.43.27.65a0,0,0,0,1,0,0c.15.35.29.71.42,1.07s.25.65.35,1a3.26,3.26,0,0,1,.15.44q.18.54.33,1.08c0,.13.08.27.11.4.16.59.3,1.18.42,1.78,0,.18.08.36.11.54.14.77.25,1.56.33,2.35,0,.26,0,.51.05.77a5.49,5.49,0,0,1,0,.58A24.77,24.77,0,0,1,370.73,118.29ZM204,73.72h-1.82c-1,0-1.46.33-1.46,1.33,0-1,.47-1.31,1.46-1.31H204Zm0,0h-1.82c-1,0-1.46.33-1.46,1.33,0-1,.47-1.31,1.46-1.31H204Zm0,0h-1.82c-1,0-1.46.33-1.46,1.33,0-1,.47-1.31,1.46-1.31H204Zm0,0h-1.82c-1,0-1.46.33-1.46,1.33,0-1,.47-1.31,1.46-1.31H204Zm0,0h-1.82c-1,0-1.46.33-1.46,1.33,0-1,.47-1.31,1.46-1.31H204Zm0,0h-1.82c-1,0-1.46.33-1.46,1.33,0-1,.47-1.31,1.46-1.31H204Zm0,0h-1.82c-1,0-1.46.33-1.46,1.33,0-1,.47-1.31,1.46-1.31H204Zm0,0h-1.82c-1,0-1.46.33-1.46,1.33,0-1,.47-1.31,1.46-1.31H204Zm0,0h-1.82c-1,0-1.46.33-1.46,1.33,0-1,.47-1.31,1.46-1.31H204Zm0,0h-1.82c-1,0-1.46.33-1.46,1.33,0-1,.47-1.31,1.46-1.31H204Zm0,0h-1.82c-1,0-1.46.33-1.46,1.33,0-1,.47-1.31,1.46-1.31H204Zm150,24c-2.1,0-4.21.19-6.29,0-3-.27-5.37.45-6.7,3.45a7.69,7.69,0,0,1-1.54,2,45.5,45.5,0,0,0-7.29,10.22c-1,1.86-2.1,3.63-3.23,5.4a37.24,37.24,0,0,0-5,14.15,18.17,18.17,0,0,0-.13,7.16c.07.31.15.62.23.93s.11.39.16.57l.15.47c.11.33.23.64.36,1a8.21,8.21,0,0,0,1.19,2l.36.4.34.33a2.43,2.43,0,0,0,.25.2c-1.68-1.4-2.45-3.55-3-5.82A18.17,18.17,0,0,1,324,133a37.24,37.24,0,0,1,5-14.15c1.13-1.77,2.23-3.54,3.23-5.4a45.5,45.5,0,0,1,7.29-10.22,7.69,7.69,0,0,0,1.54-2c1.33-3,3.7-3.72,6.7-3.45,2.08.15,4.19,0,6.29,0v-.61Zm-150-24h-1.82c-1,0-1.46.33-1.46,1.33,0-1,.47-1.31,1.46-1.31H204Zm150,24c-2.1,0-4.21.19-6.29,0-3-.27-5.37.45-6.7,3.45a7.69,7.69,0,0,1-1.54,2,45.5,45.5,0,0,0-7.29,10.22c-1,1.86-2.1,3.63-3.23,5.4a37.24,37.24,0,0,0-5,14.15,18.17,18.17,0,0,0-.13,7.16c.07.31.15.62.23.93s.11.39.16.57l.15.47c.11.33.23.64.36,1a8.21,8.21,0,0,0,1.19,2l.36.4.34.33a2.43,2.43,0,0,0,.25.2c-1.68-1.4-2.45-3.55-3-5.82A18.17,18.17,0,0,1,324,133a37.24,37.24,0,0,1,5-14.15c1.13-1.77,2.23-3.54,3.23-5.4a45.5,45.5,0,0,1,7.29-10.22,7.69,7.69,0,0,0,1.54-2c1.33-3,3.7-3.72,6.7-3.45,2.08.15,4.19,0,6.29,0v-.61Zm-150-24h-1.82c-1,0-1.46.33-1.46,1.33,0-1,.47-1.31,1.46-1.31H204Zm150,24c-2.1,0-4.21.19-6.29,0-3-.27-5.37.45-6.7,3.45a7.69,7.69,0,0,1-1.54,2,45.5,45.5,0,0,0-7.29,10.22c-1,1.86-2.1,3.63-3.23,5.4a37.24,37.24,0,0,0-5,14.15,18.17,18.17,0,0,0-.13,7.16c.07.31.15.62.23.93s.11.39.16.57l.15.47c.11.33.23.64.36,1a8.21,8.21,0,0,0,1.19,2l.36.4.34.33a2.43,2.43,0,0,0,.25.2c-1.68-1.4-2.45-3.55-3-5.82A18.17,18.17,0,0,1,324,133a37.24,37.24,0,0,1,5-14.15c1.13-1.77,2.23-3.54,3.23-5.4a45.5,45.5,0,0,1,7.29-10.22,7.69,7.69,0,0,0,1.54-2c1.33-3,3.7-3.72,6.7-3.45,2.08.15,4.19,0,6.29,0v-.61Z" transform="translate(0.53 0.5)"/><path class="cls-2" d="M179.73,60.22c-3,2.46-5.58,5-8.77,6.89Z" transform="translate(0.53 0.5)"/><path class="cls-2" d="M158.91,75.33a17.12,17.12,0,0,1-6.47,4c-1.88.69-3.53,1.62-4,3.76-.22,1-1,.72-1.57.72-7.56.11-15.12-.23-22.67-.67a134.89,134.89,0,0,1-17.69-2,29.77,29.77,0,0,1-7.07-2.27v-.54Z" transform="translate(0.53 0.5)"/><path class="cls-2" d="M193,97.92a1.44,1.44,0,0,1-.87,1.42c-1.77,1.14-3.52,2.3-5.3,3.42-3.08,1.94-6.57,2.09-10.28,2.24-3.17.6-5.85-.86-8.32-2.86-.7-.58-1-1.19-.39-2a.8.8,0,0,0,.08-.16,8.93,8.93,0,0,1,7-6.29A93,93,0,0,0,185.41,90a17,17,0,0,1,6.7-1.07c.79,0,1.14.09,1.14,1.09A58.05,58.05,0,0,0,193,97.92Z" transform="translate(0.53 0.5)"/><path class="cls-2" d="M241.71,100.11c-14.45.65-28.57,2-42.89,3.13a3,3,0,0,1,1.06-2.59,69.22,69.22,0,0,0,10.06-9.75c.73-.91,4.63-1.25,5.51-.55.33.28.24.65.24,1,0,1.06-.12,2.06-.12,3.06a3.5,3.5,0,0,0,2.22,3.4c1.41.59,2.51,0,3.51-1.09a13.53,13.53,0,0,0,2.69-3.8c.41-1,1-1.44,2.08-1a6.15,6.15,0,0,0,1.41.26c2,.22,3.75.28,3.75,3.22,0,2.26,3.41,3.05,5.49,1.46A7,7,0,0,0,238.39,95c.52-.82,1.12-.7,1.86-.5.94.26.58.93.49,1.46A5.16,5.16,0,0,0,241.71,100.11Z" transform="translate(0.53 0.5)"/><path class="cls-2" d="M194.83,75.28c-.65,4.37.35,3.51-4,3.82-3.47.24-6.93.5-10.39.73-.45,0-.93.27-1.52-.17l2.7-4.75c.32-.59.86-.59,1.41-.59,3.53-.1,7.06-.17,10.59-.33C194.66,73.94,195,74.21,194.83,75.28Z" transform="translate(0.53 0.5)"/><path class="cls-2" d="M197.59,53.3c-.67,5.09-1.29,9.7-1.84,14.36-.11.87-.41,1.26-1.34,1.26-2.82,0-5.64.14-8.45.27-1,0-1.29-.2-.84-1.2a8.84,8.84,0,0,0,1-2.87c.26-3,1.95-4.5,4.35-6.16S195,55.35,197.59,53.3Z" transform="translate(0.53 0.5)"/><path class="cls-2" d="M292.43,10.6A34,34,0,0,0,282.38,8c-5.38-.4-10.81-.7-16.11-1.6C260,5.33,253.84,5.55,247.61,6s-12.23,1.85-18.28,3c-12.78,2.51-25.35,5.93-38,9-7.67,1.85-14.87,5.11-22.38,7.4-12.53,3.81-24.08,9.74-35.61,15.77A211.93,211.93,0,0,0,111.43,55a39.82,39.82,0,0,0-6.63,5.52c-3.07,3.29-6.2,6.57-7.46,11.08-.55,2-.51,2,1.51,1.89,15.89-.86,31.76-1.89,47.66-2.48,4.86-.18,9.71-.55,14.57-.81A1.78,1.78,0,0,0,163,69c2.27-5.45,6.15-9.73,10.62-13.41,3.37-2.78,8-3,10.91-.83a1.63,1.63,0,0,0,2.3.13l.13-.13c3.47-3,6.94-5.91,10.51-8.75,2.76-2.18,5.23-1.18,5.86,2.29a18.12,18.12,0,0,1,0,5.74c-.62,4.4-1.16,8.81-1.81,13.2-.17,1.17.15,1.4,1.29,1.38,4-.1,8-.05,12-.05h0v-.86H227a6.43,6.43,0,0,0,2.9-.83c6.65-3.27,13.21-6.88,20.1-9.68,8.15-3.38,15.57-8,23.19-12.32,7.29-4.11,13.75-9.26,18.64-16.13A22.26,22.26,0,0,0,296,16.67C296.12,14,295.2,11.67,292.43,10.6ZM255,44.45l-.27,0c-1.9.15-3.16-1.12-3.32-3.38,0-.57,0-1.09,0-1.85a5.3,5.3,0,0,0-.06-2.1,2.28,2.28,0,0,1,1.38-2.49,2.1,2.1,0,0,1,2.65.39c1.38,1.56,2.76,3.14,2.85,5.43A3.62,3.62,0,0,1,255,44.45Z" transform="translate(0.53 0.5)"/><path class="cls-2" d="M274,120.41a32.77,32.77,0,0,1-7.79,9.54c-8.72,7.51-19,11.72-29.72,15.28-11.52,3.83-23.05,7.55-35.11,9.23a139,139,0,0,1-20.67,1.73h0a61.92,61.92,0,0,1-19.44-1.07c-7-1.55-11-7.84-10.15-15,1-8.7,4.64-16.32,8.41-24,1.76-3.59,3.82-4.76,7.82-4.92,16-.62,31.81-2.49,47.72-3.73,12.15-1,24.33-1.47,36.45-2.81,4.53-.51,9.08-.91,13.61-1.37a2.55,2.55,0,0,1,2.06.37,46.21,46.21,0,0,1,5.32,4.56C275.64,111.91,276.24,116.09,274,120.41Z" transform="translate(0.53 0.5)"/><path class="cls-2" d="M369.42,124.65a30.35,30.35,0,0,1-17.26,18.77A58.86,58.86,0,0,1,338,147.68a21.17,21.17,0,0,1-8.57-.44,6.78,6.78,0,0,1-1.84-.71,5.76,5.76,0,0,1-.81-.55c-1.68-1.4-2.45-3.55-3-5.82A18.17,18.17,0,0,1,324,133a37.24,37.24,0,0,1,5-14.15c1.13-1.77,2.23-3.54,3.23-5.4a45.5,45.5,0,0,1,7.29-10.22,7.69,7.69,0,0,0,1.54-2c1.33-3,3.7-3.72,6.7-3.45,2.08.15,4.19,0,6.29,0v-.62c2.83,0,5.71,0,8.64.06.73,0,1.4,0,1.89.7a46.66,46.66,0,0,1,3.55,6.36,1.92,1.92,0,0,1,.12.25l.27.65a0,0,0,0,1,0,0c.15.35.29.71.42,1.07s.25.65.35,1a3.26,3.26,0,0,1,.15.44q.18.54.33,1.08c0,.13.08.27.11.4.16.59.3,1.18.42,1.78,0,.18.08.36.11.54.14.77.25,1.56.33,2.35A26.38,26.38,0,0,1,369.42,124.65Z" transform="translate(0.53 0.5)"/><path class="cls-3" d="M353.92,97.72l.08-.56v.62c-2.1,0-4.21.15-6.29,0-3-.27-5.37.47-6.7,3.45a7.69,7.69,0,0,1-1.54,2,45.5,45.5,0,0,0-7.29,10.22c-1,1.86-2.1,3.63-3.23,5.4A37.24,37.24,0,0,0,324,133a18.17,18.17,0,0,0-.13,7.16c.51,2.27,1.28,4.42,3,5.82a2.43,2.43,0,0,1-.25-.2l-.34-.33-.36-.4a8.21,8.21,0,0,1-1.19-2c-.13-.31-.25-.62-.36-1l-.15-.47c-.05-.18-.11-.38-.16-.57s-.16-.62-.23-.93a18.17,18.17,0,0,1,.13-7.16,37.24,37.24,0,0,1,5-14.15c1.13-1.77,2.26-3.54,3.23-5.4a45.5,45.5,0,0,1,7.29-10.22,7.69,7.69,0,0,0,1.54-2c1.33-3,3.66-3.72,6.7-3.45C349.71,97.91,351.82,97.72,353.92,97.72Z" transform="translate(0.53 0.5)"/><path class="cls-3" d="M364.52,97.86a44.3,44.3,0,0,1,3.56,6.42,46.66,46.66,0,0,0-3.55-6.36c-.49-.74-1.16-.7-1.89-.7-2.93,0-5.81-.06-8.64-.06h8.63A2,2,0,0,1,364.52,97.86Z" transform="translate(0.53 0.5)"/><path class="cls-2" d="M346.42,84.59c-2.18,2.56-4.62,4.89-6.57,7.64a1.15,1.15,0,0,1-.14.17l0,0a2.68,2.68,0,0,1-1.91.48c-14.29.27-28.53,1.39-42.78,2.27-7.85.48-15.67,1.32-23.49,2.09a7.53,7.53,0,0,1-5.28-1c-3.17-2.11-6.87-3.06-10.51-4.45h0c3.5-1.46,6.91-3.09,10.44-4.43,1.17-.44,2.35-.84,3.56-1.2a24.63,24.63,0,0,0,3.92-1.29c6.68-3.32,13.94-4.8,21.12-6.37,17.51-3.83,34.68-2.73,51.32,4.36C347.24,83.41,347.12,83.76,346.42,84.59Z" transform="translate(0.53 0.5)"/><path class="cls-3" d="M339.68,92.43a2.55,2.55,0,0,1-1.95.51c-14.29.31-28.53,1.39-42.78,2.27-7.85.48-15.67,1.32-23.49,2.09a7.53,7.53,0,0,1-5.28-1c-3.18-2.14-6.87-3.09-10.51-4.48h0c3.64,1.39,7.34,2.34,10.51,4.45a7.53,7.53,0,0,0,5.28,1c7.82-.77,15.64-1.61,23.49-2.09,14.25-.88,28.49-2,42.78-2.27A2.68,2.68,0,0,0,339.68,92.43Z" transform="translate(0.53 0.5)"/><path class="cls-2" d="M276.07,77.15c-.27.15-.54.3-.82.44a36.76,36.76,0,0,1-6.06,2.49l-1.76.55c-.52.16-1.05.34-1.57.52-2,.67-4.06,1.41-6.06,2.2q-.78.3-1.56.63l-.79.33c-.68.28-1.35.56-2,.87s-1.49.65-2.23,1-1.5.69-2.25,1.06c-.47.23-.94.47-1.4.74h0l-.68.39-.73.41a3.56,3.56,0,0,1-.38.2.61.61,0,0,1-.3.06c-.23,0-.34-.27-.35-.83,0-2.51.25-5-.35-7.53-.14-.57.13-.75.6-.81h0l2.73-.28.77-.09,2.93-.35,7.88-1,3.09-.39c1-.12,2.05-.23,3.08-.33l1.07-.1c1.11-.11,2.21-.19,3.32-.26.53,0,1.06-.07,1.6-.09l1.94-.07s0,0,.07,0l0,0,.08.08Z" transform="translate(0.53 0.5)"/><path class="cls-3" d="M248.85,88.39l-.69.41a2.56,2.56,0,0,1-.42.2,3.56,3.56,0,0,0,.38-.2Z" transform="translate(0.53 0.5)"/><path class="cls-3" d="M253.21,86.19,251,87.25c-.5.23-1,.48-1.44.74.46-.27.93-.51,1.4-.74C251.71,86.88,252.45,86.53,253.21,86.19Z" transform="translate(0.53 0.5)"/><path class="cls-3" d="M275.86,76.94s-.05,0-.07,0h0Z" transform="translate(0.53 0.5)"/><path class="cls-2" d="M160.24,101.73a39,39,0,0,0-2,3.64,1.46,1.46,0,0,1-.5.63l-.22.13a.62.62,0,0,1-.19.07,1.61,1.61,0,0,1-.44.06c-8.56.61-17.1,1.24-26.08,1.9a6.27,6.27,0,0,1,.87-.58c1-.31,1.94-.64,2.91-1,.48-.16.95-.32,1.42-.5s1-.33,1.43-.51c1.9-.68,3.79-1.38,5.68-2.07a.13.13,0,0,0,.08,0A110.43,110.43,0,0,1,158.14,99a.64.64,0,0,0,.18-.06l.14-.05.15-.06a1.84,1.84,0,0,1,.25-.09.16.16,0,0,1,.09,0,.27.27,0,0,1,.12,0,.32.32,0,0,1,.14,0h.11a.61.61,0,0,1,.56.44C160.27,99.92,160.88,100.68,160.24,101.73Z" transform="translate(0.53 0.5)"/><path class="cls-3" d="M156.89,106.26a1.61,1.61,0,0,0,.44-.06,1.33,1.33,0,0,1-.49.09l-11.91.86-14.17,1,0,0h0C139.79,107.5,148.33,106.87,156.89,106.26Z" transform="translate(0.53 0.5)"/><path class="cls-2" d="M270.73,71.43l-1.4.19-4.35.59c-10.47,1.41-21,2.72-31.51,3.28-2.82.15-5.56.83-8.37.86-.38,0-.92.32-1.1-.22a.56.56,0,0,1,0-.48.31.31,0,0,1,.09-.11.52.52,0,0,1,.11-.1,2.77,2.77,0,0,1,.55-.26c3.23-1.28,6.36-2.58,10-2.64,10.14-.2,20.27-.67,30.41-1,.46,0,.91-.05,1.37-.06h.72Z" transform="translate(0.53 0.5)"/><path class="cls-3" d="M266.57,71.48c-.46,0-.91,0-1.37.06-10.14.33-20.27.8-30.41,1-3.64.06-6.77,1.36-10,2.64a2.77,2.77,0,0,0-.55.26,2.05,2.05,0,0,1,.56-.31c3.22-1.28,6.35-2.58,10-2.64,10.14-.16,20.27-.63,30.41-1Z" transform="translate(0.53 0.5)"/><path class="cls-2" d="M356,71.87a39.19,39.19,0,0,1-4.63,6.1.91.91,0,0,1-1.13.23c-4.52-1.56-8.89-3.49-13.45-5.11l9.38-.61Z" transform="translate(0.53 0.5)"/><path class="cls-2" d="M213.75,73.73c-.25.09-.49.17-.73.27-1.34.5-2.64,1.11-3.94,1.7l-.78.36c-.52.24-1,.48-1.56.7l-.82.34-.72.28c-.48.18-1,.35-1.46.5l-.75.21c-.25.06-.5.13-.76.18a4.75,4.75,0,0,1-.91.12h-.16l-.15,0a1.07,1.07,0,0,1-.27-.08.41.41,0,0,1-.11-.07.62.62,0,0,1-.14-.14.8.8,0,0,1-.08-.16,1.2,1.2,0,0,1-.06-.59,2.55,2.55,0,0,1,.07-.43c0-.07,0-.15.06-.24a6.75,6.75,0,0,0,.19-1.61c0-1,.47-1.31,1.46-1.31h11.62Z" transform="translate(0.53 0.5)"/><path class="cls-3" d="M204,73.72h-1.82c-1,0-1.42.36-1.46,1.31,0-1,.46-1.34,1.46-1.33Z" transform="translate(0.53 0.5)"/><path class="cls-2" d="M359.48,92c-4.05.18-7.75.49-11.74.45l3.48-4.15,1.1-1.33c.34-.4.64-.45,1.05-.1l.73.6C355.8,88.92,357.54,90.38,359.48,92Z" transform="translate(0.53 0.5)"/><path class="cls-3" d="M351.22,88.3l-3.48,4.15C349,91,350.1,89.62,351.22,88.3Z" transform="translate(0.53 0.5)"/><path class="cls-3" d="M354.1,87.47c1.7,1.4,3.44,2.86,5.38,4.53C357.54,90.38,355.8,88.92,354.1,87.47Z" transform="translate(0.53 0.5)"/><path class="cls-3" d="M359.48,92c-4.05.23-7.75.54-11.74.45C351.73,92.49,355.43,92.18,359.48,92Z" transform="translate(0.53 0.5)"/><path class="cls-2" d="M256.69,98.22l-.08.35c-.22,0-.45.1-.67.12l-9.47.87a9.58,9.58,0,0,1,.36-1.45,2.09,2.09,0,0,1,.11-.3,1.47,1.47,0,0,1,.1-.22,1.74,1.74,0,0,1,.18-.33,2,2,0,0,1,.29-.36.93.93,0,0,1,.14-.14.66.66,0,0,1,.17-.12c.67-.44,1.62-.41,3,0Z" transform="translate(0.53 0.5)"/><path class="cls-3" d="M246.46,99.56a8.46,8.46,0,0,1,.37-1.45,9.58,9.58,0,0,0-.36,1.45Z" transform="translate(0.53 0.5)"/><path class="cls-3" d="M256.7,98.17v0l-5.84-1.61c-1.41-.38-2.36-.41-3,0,.67-.45,1.62-.44,3-.08Z" transform="translate(0.53 0.5)"/><path class="cls-2" d="M180.77,59.38c-.17.13-.33.26-.5.41h0l-.17.14-.35.28h0L171,67.11l0,0-.11.08a5.05,5.05,0,0,1,.65-1.53c.13-.22.28-.43.44-.66l.25-.33c.21-.27.44-.54.69-.82l.15-.16c.27-.29.56-.58.87-.86l.46-.42.54-.44.39-.3a16,16,0,0,1,1.41-1,12.9,12.9,0,0,1,1.41-.75l.37-.16.38-.14.47-.14.41-.1h.07l.18,0h.11A3.39,3.39,0,0,1,180.77,59.38Z" transform="translate(0.53 0.5)"/><path class="cls-3" d="M170.81,67.21l.11-.08-.12.1v0Z" transform="translate(0.53 0.5)"/><path class="cls-3" d="M175.25,61.69a13.53,13.53,0,0,1,1.41-1A16,16,0,0,0,175.25,61.69Z" transform="translate(0.53 0.5)"/><path class="cls-3" d="M180.77,59.38a3.79,3.79,0,0,0-.82,0A3.26,3.26,0,0,1,180.77,59.38Z" transform="translate(0.53 0.5)"/><path class="cls-3" d="M180.26,59.8q.26-.22.51-.42h0Z" transform="translate(0.53 0.5)"/><path class="cls-2" d="M203.65,89.25a1,1,0,0,1-.4.72l-2.63,2.49-1.72,1.62V92.91c0-.4,0-.76,0-1.08,0-.17,0-.32,0-.47a1.09,1.09,0,0,1,0-.18l0-.42c0-.19,0-.36.07-.51C199.38,88.48,200.26,88.64,203.65,89.25Z" transform="translate(0.53 0.5)"/><path class="cls-3" d="M203.65,89.22v0c-3.39-.61-4.27-.77-4.57,1C199.37,88.45,200.25,88.6,203.65,89.22Z" transform="translate(0.53 0.5)"/><path class="cls-2" d="M239.43,80.58l-2.78,4.75c-.19-1.55-.32-2.7-.47-3.84a.88.88,0,0,1,0-.29.39.39,0,0,1,.12-.23.87.87,0,0,1,.49-.18H237Z" transform="translate(0.53 0.5)"/><path class="cls-2" d="M230.92,86.15a1,1,0,0,1-.11.57.39.39,0,0,1-.42.14,9,9,0,0,1-2.24-.47c-.4-.16,0-.63.18-.89a11.84,11.84,0,0,1,2.34-2.93c.05.7.1,1.33.14,1.92S230.89,85.6,230.92,86.15Z" transform="translate(0.53 0.5)"/><path class="cls-3" d="M230.81,86.72a1,1,0,0,0,.11-.57c0-.55-.07-1.08-.11-1.66.05.58.09,1.12.13,1.66A1,1,0,0,1,230.81,86.72Z" transform="translate(0.53 0.5)"/><path class="cls-2" d="M166.14,90.37c-.08.13-.16.25-.25.37a1.4,1.4,0,0,1-1,.62.79.79,0,0,1-.3,0l-.14-.06c-.38-.24-.35-.81-.32-1.31,0-.14,0-.27,0-.39a1.36,1.36,0,0,1,0-.21.57.57,0,0,1,.36-.44.31.31,0,0,1,.13,0,.43.43,0,0,1,.16,0H165a4.77,4.77,0,0,0,.53,0Z" transform="translate(0.53 0.5)"/><path class="cls-3" d="M164.51,88.9a.57.57,0,0,0-.36.44A.49.49,0,0,1,164.51,88.9Z" transform="translate(0.53 0.5)"/><path class="cls-2" d="M208.86,83.41a1.84,1.84,0,0,1-.27.23,1.26,1.26,0,0,1-.35.17l-.17,0-.17,0h-.37a7.12,7.12,0,0,1-.88-.2l-.28-.07-.25,0,.36-.09.38-.07h0a3.4,3.4,0,0,1,.46-.06h.15A5.57,5.57,0,0,1,208.86,83.41Z" transform="translate(0.53 0.5)"/><path class="cls-3" d="M208.59,83.64a1.84,1.84,0,0,0,.27-.23,5.57,5.57,0,0,0-1.35-.08,5.41,5.41,0,0,1,1.39.07A1.36,1.36,0,0,1,208.59,83.64Z" transform="translate(0.53 0.5)"/><path class="cls-2" d="M216.85,82.7c0,.12,0,.24,0,.36s0,.48,0,.69a1.24,1.24,0,0,1-.08.4.46.46,0,0,1,0,.09s0,0,0,0a.46.46,0,0,1-.09.15.27.27,0,0,1-.07.08.45.45,0,0,1-.13.11l-.19.1a.77.77,0,0,1-.45-.11h0a.41.41,0,0,1-.1-.09h0a1.51,1.51,0,0,1,.08-.38l0-.08,0-.09a.64.64,0,0,1,.08-.14,3.87,3.87,0,0,1,.68-.77.38.38,0,0,1,.09-.09Z" transform="translate(0.53 0.5)"/><path class="cls-3" d="M216.17,84.69l.19-.1a.86.86,0,0,1-.19.11.73.73,0,0,1-.45-.12A.77.77,0,0,0,216.17,84.69Z" transform="translate(0.53 0.5)"/><path class="cls-1" d="M255,44.45l-.27,0c-1.9.15-3.16-1.12-3.32-3.38,0-.57,0-1.09,0-1.85a5.3,5.3,0,0,0-.06-2.1,2.28,2.28,0,0,1,1.38-2.49,2.1,2.1,0,0,1,2.65.39c1.38,1.56,2.76,3.14,2.85,5.43A3.62,3.62,0,0,1,255,44.45Z" transform="translate(0.53 0.5)"/></g></g></svg>